<svg xmlns="http://www.w3.org/2000/svg" viewBox="0 0 96 96" fill="none">
  <defs>
    <linearGradient id="bg" x1="0" y1="0" x2="1" y2="1">
      <stop offset="0" stop-color="#1b2226"/>
      <stop offset="1" stop-color="#314047"/>
    </linearGradient>
    <radialGradient id="core" cx="0" cy="0" r="1" gradientTransform="translate(48 48) rotate(90) scale(16)">
      <stop offset="0" stop-color="#d7f9ff"/>
      <stop offset=".45" stop-color="#70dbff"/>
      <stop offset="1" stop-color="#2f8cb8" stop-opacity="0"/>
    </radialGradient>
  </defs>
  <rect x="4" y="4" width="88" height="88" rx="14" fill="url(#bg)"/>
  <path d="m18 64 7-28 16-14h14l16 14 7 28-9 10H27z" fill="#6b6259"/>
  <path d="M13 49 25 40l5 18-9 13-11-8z" fill="#5a5148"/>
  <path d="m83 49-12-9-5 18 9 13 11-8z" fill="#5a5148"/>
  <circle cx="48" cy="48" r="16" fill="url(#core)"/>
  <circle cx="41" cy="37" r="2" fill="#9fefff"/>
  <circle cx="55" cy="37" r="2" fill="#9fefff"/>
  <path d="m38 53 20-4" stroke="#8de8ff" stroke-width="2" stroke-linecap="round"/>
  <rect x="7" y="7" width="82" height="82" rx="11" stroke="#8ee7ff" stroke-opacity=".35"/>
</svg>