<svg xmlns="http://www.w3.org/2000/svg" viewBox="0 0 96 96" fill="none">
  <defs>
    <linearGradient id="bg" x1="0" y1="0" x2="1" y2="1">
      <stop offset="0" stop-color="#1c1f26"/>
      <stop offset="1" stop-color="#3a2d27"/>
    </linearGradient>
    <linearGradient id="plate" x1="0" y1="0" x2="0" y2="1">
      <stop offset="0" stop-color="#6f7683"/>
      <stop offset="1" stop-color="#3f4651"/>
    </linearGradient>
  </defs>
  <rect x="4" y="4" width="88" height="88" rx="14" fill="url(#bg)"/>
  <rect x="26" y="34" width="44" height="36" rx="8" fill="url(#plate)"/>
  <rect x="34" y="20" width="28" height="18" rx="7" fill="#4e5663"/>
  <rect x="40" y="27" width="16" height="4" rx="2" fill="#ffb35f"/>
  <circle cx="48" cy="30" r="4" fill="#ffd7a2"/>
  <path d="M73 64 85 43" stroke="#8d5736" stroke-width="4" stroke-linecap="round"/>
  <path d="M78 28 90 40 80 52 67 40z" fill="#cfd7e0"/>
  <path d="m74 36 9 9" stroke="#8b949f" stroke-width="2"/>
  <rect x="13" y="40" width="11" height="24" rx="3" fill="#444b57"/>
  <rect x="72" y="40" width="11" height="24" rx="3" fill="#444b57"/>
  <rect x="7" y="7" width="82" height="82" rx="11" stroke="#ff9250" stroke-opacity=".35"/>
</svg>