<svg xmlns="http://www.w3.org/2000/svg" viewBox="0 0 96 96" fill="none">
  <defs>
    <linearGradient id="bg" x1="0" y1="0" x2="1" y2="1">
      <stop offset="0" stop-color="#0f1b24"/>
      <stop offset="1" stop-color="#1f3644"/>
    </linearGradient>
    <linearGradient id="hood" x1="0" y1="0" x2="0" y2="1">
      <stop offset="0" stop-color="#60666f"/>
      <stop offset="1" stop-color="#2a3038"/>
    </linearGradient>
  </defs>
  <rect x="4" y="4" width="88" height="88" rx="14" fill="url(#bg)"/>
  <path d="M20 70 34 34h28l14 36z" fill="url(#hood)"/>
  <path d="M48 26c8 0 14 7 14 16v4H34v-4c0-9 6-16 14-16Z" fill="#404751"/>
  <ellipse cx="48" cy="45" rx="9" ry="8" fill="#d9b48f"/>
  <rect x="34" y="58" width="28" height="8" rx="4" fill="#2b3036"/>
  <path d="m28 60-13 8 2 5 15-7z" fill="#d4dce7"/>
  <path d="m68 60 13 8-2 5-15-7z" fill="#d4dce7"/>
  <path d="m15 68 4-2 2 5-5 3z" fill="#f7f8fa"/>
  <path d="m81 68-4-2-2 5 5 3z" fill="#f7f8fa"/>
  <rect x="7" y="7" width="82" height="82" rx="11" stroke="#6dd7ff" stroke-opacity=".35"/>
</svg>