<svg xmlns="http://www.w3.org/2000/svg" viewBox="0 0 96 96" fill="none">
  <defs>
    <linearGradient id="bg" x1="0" y1="0" x2="1" y2="1">
      <stop offset="0" stop-color="#181f2b"/>
      <stop offset="1" stop-color="#243748"/>
    </linearGradient>
    <linearGradient id="armor" x1="0" y1="0" x2="0" y2="1">
      <stop offset="0" stop-color="#b8c1cd"/>
      <stop offset="1" stop-color="#6f7988"/>
    </linearGradient>
  </defs>
  <rect x="4" y="4" width="88" height="88" rx="14" fill="url(#bg)"/>
  <rect x="30" y="34" width="36" height="36" rx="8" fill="url(#armor)"/>
  <rect x="36" y="24" width="24" height="16" rx="6" fill="#8e99aa"/>
  <circle cx="48" cy="31" r="5" fill="#ffd7ae"/>
  <path d="M22 34 10 40v23l12 6 10-6V40z" fill="#9a2d32"/>
  <path d="m22 34 10 6v23l-10 6" stroke="#d46868" stroke-width="2"/>
  <path d="M73 24v48" stroke="#e6edf5" stroke-width="5" stroke-linecap="round"/>
  <path d="m63 27 10-14 10 14" fill="#e6edf5"/>
  <path d="M66 40h14" stroke="#e6edf5" stroke-width="3" stroke-linecap="round"/>
  <rect x="7" y="7" width="82" height="82" rx="11" stroke="#ffd779" stroke-opacity=".35"/>
</svg>